<svg width="64" height="64" viewBox="0 0 64 64" fill="none" xmlns="http://www.w3.org/2000/svg"><rect width="64" height="64" rx="16" fill="#FFF4E8"/><path d="M14 17l14 10-3 8-7-4-4-14z" fill="#E17726"/><path d="M50 17L36 27l3 8 7-4 4-14z" fill="#E17726"/><path d="M25 35l-3 10 10 4 10-4-3-10-7 5-7-5z" fill="#F6851B"/><path d="M18 31l7 4-3 10-8-5 4-9zM46 31l-7 4 3 10 8-5-4-9z" fill="#C0AD9E"/><path d="M25 35l7 5 7-5-3-8h-8l-3 8z" fill="#763D16"/><path d="M22 45l10 4v-9l-7-5-3 10zM42 45l-10 4v-9l7-5 3 10z" fill="#D7C1B3"/></svg>
